<?xml version="1.0" standalone="no"?>
<!DOCTYPE svg PUBLIC "-//W3C//DTD SVG 20010904//EN"
 "http://www.w3.org/TR/2001/REC-SVG-20010904/DTD/svg10.dtd">
<svg version="1.0" xmlns="http://www.w3.org/2000/svg"
 width="626.000000pt" height="626.000000pt" viewBox="0 0 626.000000 626.000000"
 preserveAspectRatio="xMidYMid meet">
<metadata>
Created by potrace 1.16, written by Peter Selinger 2001-2019
</metadata>
<g transform="translate(0.000000,626.000000) scale(0.100000,-0.100000)"
fill="#000000" stroke="none">
<path d="M3060 5306 c-25 -7 -77 -29 -117 -50 l-71 -37 -169 -3 c-146 -2 -176
-5 -228 -25 -33 -13 -98 -27 -145 -31 -131 -13 -199 -41 -279 -114 -36 -34
-56 -44 -92 -49 -111 -15 -234 -98 -364 -245 -109 -124 -129 -167 -106 -226 9
-23 -27 -87 -46 -81 -6 2 -19 -5 -28 -15 -24 -27 -61 -33 -98 -15 -36 17 -62
51 -47 60 15 9 12 25 -4 25 -32 0 -85 -134 -70 -175 11 -28 24 -15 24 25 0 21
5 50 11 64 l12 25 29 -24 c39 -33 72 -40 116 -27 20 6 37 10 38 9 1 -1 -6 -27
-16 -57 -22 -68 -28 -105 -15 -107 6 0 16 24 23 54 30 135 127 258 269 342
l72 43 23 -22 c13 -12 37 -29 55 -36 37 -16 133 -19 133 -4 0 6 -19 10 -42 10
-51 0 -126 32 -135 57 -4 10 -14 24 -24 31 -10 6 -20 26 -24 42 -4 17 -11 30
-17 30 -10 0 -7 -32 6 -75 6 -17 -3 -25 -47 -48 -30 -15 -81 -50 -115 -77 -56
-45 -60 -47 -66 -27 -11 42 31 105 151 226 101 103 129 125 193 155 41 19 90
37 108 41 l33 7 -21 -41 c-11 -23 -18 -41 -15 -41 3 0 -19 -25 -50 -55 -30
-31 -55 -62 -55 -70 0 -23 6 -19 52 31 52 56 116 101 177 124 44 17 67 40 39
40 -7 0 -37 -11 -67 -25 -30 -14 -56 -23 -59 -21 -2 3 12 28 33 56 42 57 106
105 174 130 54 21 151 36 151 23 0 -4 -16 -19 -35 -32 -42 -29 -99 -97 -87
-105 5 -3 31 17 58 45 27 27 70 63 95 79 84 55 228 91 299 75 l31 -7 -49 -51
c-28 -30 -71 -96 -103 -157 -45 -88 -69 -120 -150 -202 l-96 -98 -23 25 c-13
14 -34 25 -47 25 -31 0 -30 -16 2 -24 14 -4 32 -17 40 -30 14 -21 14 -29 -2
-89 -10 -37 -22 -67 -26 -67 -5 0 -18 11 -29 25 -28 35 -90 50 -153 36 -27 -7
-129 -52 -225 -101 -96 -49 -176 -85 -178 -80 -2 5 -12 20 -22 32 -23 29 -37
17 -16 -14 21 -30 20 -50 -4 -95 -11 -21 -20 -52 -20 -69 0 -19 -8 -38 -21
-50 -33 -30 -41 -51 -54 -151 -10 -71 -21 -106 -46 -150 -19 -32 -36 -76 -39
-98 l-5 -40 -57 0 c-47 0 -64 6 -99 30 -50 36 -80 90 -87 156 -6 68 -25 62
-20 -6 2 -41 0 -55 -10 -55 -22 0 -11 -15 55 -73 67 -59 114 -80 180 -79 38 0
44 -4 69 -40 35 -50 76 -72 122 -64 42 6 82 41 82 70 -1 19 -2 19 -23 -6 -57
-69 -141 -47 -176 45 -18 46 -13 70 29 150 33 63 42 91 49 161 5 49 16 96 25
111 17 25 36 33 36 15 0 -16 40 -51 51 -45 5 4 -1 19 -16 37 -47 56 -23 144
55 204 19 14 107 62 195 105 131 65 168 79 207 79 85 0 115 -26 119 -103 2
-35 -3 -55 -24 -86 -30 -44 -44 -51 -54 -23 -9 25 -34 52 -44 46 -4 -2 0 -19
11 -37 29 -51 33 -92 19 -213 -17 -154 -7 -196 72 -306 71 -99 119 -193 119
-230 0 -16 5 -28 10 -28 15 0 12 65 -4 103 -7 18 -47 82 -88 143 -88 129 -101
172 -88 279 5 39 10 97 10 130 1 56 4 63 45 110 35 38 45 45 45 30 0 -11 11
-47 25 -79 24 -58 24 -61 8 -117 -15 -56 -12 -109 7 -109 6 0 10 24 10 53 0
28 4 58 9 66 13 20 41 -37 48 -100 8 -66 27 -64 21 4 -3 34 -20 84 -50 147
-76 159 -78 195 -25 360 19 57 32 76 114 159 75 76 102 113 145 195 82 156
157 237 202 220 9 -4 18 0 21 8 4 9 15 13 28 11 12 -3 42 2 67 11 24 8 45 14
46 13 1 -1 -15 -27 -35 -57 -26 -39 -46 -58 -71 -66 -46 -15 -54 -39 -10 -29
l31 7 -26 -44 c-15 -23 -46 -62 -68 -85 -41 -43 -45 -63 -8 -44 23 13 91 106
145 201 21 36 56 88 77 116 34 44 48 54 97 68 92 26 193 20 285 -16 15 -6 27
-13 27 -17 0 -4 -39 -36 -86 -71 -48 -36 -97 -73 -109 -82 -22 -18 -23 -17
-35 11 -11 28 -37 47 -48 36 -3 -3 2 -13 11 -23 32 -35 20 -59 -89 -175 -186
-197 -233 -273 -221 -359 5 -34 3 -38 -17 -38 -35 0 -87 -20 -123 -47 -25 -18
-33 -20 -33 -9 0 20 -48 76 -66 76 -20 0 -17 -18 5 -29 33 -18 46 -67 34 -130
-7 -37 -8 -140 -4 -301 6 -218 10 -251 29 -299 12 -30 20 -57 17 -59 -13 -13
-112 35 -158 77 -77 71 -125 101 -163 101 -18 0 -36 -4 -39 -10 -4 -6 5 -10
20 -10 40 0 87 -24 125 -64 38 -40 35 -61 -8 -81 -28 -12 -28 -25 -2 -25 12 0
32 11 45 24 l25 25 43 -24 c23 -13 65 -29 92 -35 28 -6 60 -19 73 -28 l23 -18
-101 -100 c-142 -139 -154 -145 -308 -155 -152 -9 -156 -7 -150 84 5 66 -15
80 -29 20 l-9 -37 -43 39 c-77 70 -111 167 -111 323 -1 137 -17 284 -38 339
-21 55 -16 82 20 120 12 13 18 26 14 30 -5 5 -23 -9 -41 -30 -33 -38 -34 -38
-47 -18 -7 12 -18 21 -25 21 -18 0 -16 -7 12 -44 14 -18 25 -38 25 -45 0 -6 6
-22 14 -34 17 -26 36 -123 36 -184 l0 -43 -44 31 c-24 17 -52 29 -62 27 -16
-3 -14 -7 12 -20 17 -10 44 -32 61 -51 27 -31 30 -42 37 -130 3 -53 9 -104 13
-113 5 -14 3 -16 -13 -9 -10 5 -38 10 -61 13 -34 3 -43 1 -43 -12 0 -12 7 -14
28 -10 44 8 92 -25 125 -87 34 -64 67 -100 111 -124 18 -10 37 -30 43 -46 10
-26 8 -30 -27 -53 -21 -14 -53 -48 -71 -75 -18 -28 -33 -51 -35 -51 -1 0 -16
13 -33 29 -18 17 -58 40 -89 52 -76 30 -240 33 -322 6 l-56 -18 -44 44 c-31
30 -63 50 -100 62 -101 33 -188 84 -260 151 -70 66 -95 69 -42 4 l29 -34 -30
-21 c-34 -23 -55 -51 -44 -61 3 -4 20 7 36 25 37 39 57 39 119 -3 28 -18 88
-48 134 -65 101 -38 128 -52 151 -83 16 -22 17 -26 2 -56 -21 -42 -30 -130
-16 -165 15 -39 32 -26 20 16 -12 44 4 127 27 144 49 36 130 56 224 57 115 1
180 -19 241 -73 l42 -37 -73 -142 c-50 -94 -82 -144 -98 -151 -36 -17 -102
-12 -167 13 l-59 23 59 28 c46 22 75 28 123 28 60 1 78 9 46 21 -37 14 -100 4
-181 -29 l-86 -36 -91 15 c-150 25 -206 29 -206 18 0 -12 13 -14 153 -33 48
-6 90 -15 93 -20 3 -5 20 -9 38 -9 48 0 72 -32 79 -104 7 -69 32 -110 70 -114
34 -4 35 14 2 22 -32 8 -41 27 -49 105 -6 62 -6 63 17 56 64 -19 103 -25 129
-20 15 4 28 4 28 1 0 -4 -16 -37 -35 -75 -46 -93 -60 -151 -46 -192 6 -18 9
-34 7 -37 -3 -2 -57 8 -121 24 -101 24 -119 31 -144 59 -16 19 -34 55 -41 86
-19 82 -39 124 -51 112 -8 -8 -7 -17 2 -31 17 -27 7 -37 -21 -22 -11 6 -33 10
-48 8 -24 -4 -25 -5 -7 -12 72 -26 89 -41 111 -98 12 -32 19 -58 16 -58 -4 0
-59 14 -122 30 -156 41 -264 95 -328 165 -45 49 -142 201 -142 223 0 4 16 6
35 4 55 -7 41 15 -17 28 -72 14 -128 48 -152 90 -31 52 -27 183 7 251 16 32
20 52 14 56 -6 4 -13 1 -15 -5 -9 -29 -22 -8 -22 38 0 28 3 50 6 50 3 0 20
-11 38 -25 34 -26 56 -32 56 -16 0 5 -11 16 -25 25 -61 40 -81 123 -49 193 10
19 41 55 70 80 56 49 65 79 12 41 l-31 -22 6 57 c8 62 43 167 57 167 5 0 10
-6 13 -12 8 -24 45 22 63 76 20 61 55 101 101 117 19 6 36 9 38 7 3 -2 1 -44
-4 -94 -8 -91 -7 -104 10 -104 5 0 9 24 9 53 0 65 32 223 55 271 10 20 38 54
64 76 25 22 83 71 127 109 112 96 190 149 230 157 19 3 34 12 34 19 0 11 -8
11 -37 3 -57 -15 -117 -53 -202 -127 -42 -37 -104 -88 -139 -115 -73 -55 -88
-76 -116 -158 -20 -58 -23 -60 -74 -77 -66 -23 -87 -42 -108 -100 -22 -58 -32
-71 -54 -71 -41 0 -77 -88 -95 -230 -5 -35 -16 -65 -31 -83 -33 -39 -49 -103
-36 -144 7 -24 6 -43 -5 -75 -11 -34 -12 -54 -5 -94 7 -32 7 -65 2 -90 -13
-52 -12 -141 0 -186 11 -37 71 -101 109 -113 12 -4 38 -39 67 -94 85 -163 176
-250 312 -301 31 -12 167 -49 302 -81 135 -33 251 -62 258 -64 10 -4 9 -11 -3
-34 -23 -45 -18 -94 16 -179 59 -149 132 -257 193 -286 42 -20 102 -21 138 -2
23 12 29 12 39 -1 23 -26 67 -43 117 -43 37 0 54 -5 68 -21 30 -33 69 -49 122
-49 63 0 119 20 207 74 105 65 144 83 235 106 105 27 177 54 201 76 19 17 20
17 37 -7 62 -89 188 -182 294 -219 56 -19 68 -28 113 -87 28 -36 107 -120 176
-187 l125 -121 113 -310 c63 -170 117 -318 122 -327 14 -27 73 -32 147 -14 36
9 76 23 88 31 l22 14 -28 73 c-40 105 -80 295 -87 415 l-6 104 44 -19 c114
-49 225 -53 331 -12 68 25 244 131 360 215 286 208 432 469 374 668 -9 31 -41
93 -71 138 -30 45 -55 83 -55 84 0 1 25 7 56 14 33 8 68 24 88 41 23 20 36 26
47 19 22 -14 88 -10 125 7 45 22 84 88 91 157 3 29 -2 105 -10 168 -9 63 -16
155 -15 204 1 92 -9 135 -42 170 -15 16 -19 41 -22 135 -3 102 -6 122 -31 173
-16 32 -45 71 -67 88 -33 26 -39 39 -45 83 -15 106 -69 202 -139 245 -26 17
-38 34 -55 88 -31 94 -74 165 -146 242 -34 36 -68 78 -76 93 -22 42 -285 355
-315 375 -15 9 -47 18 -71 19 -39 2 -47 6 -73 42 -29 40 -92 84 -140 97 -14 3
-58 23 -98 43 -61 30 -85 36 -155 40 -80 4 -84 5 -96 33 -28 63 -80 69 -391
45 l-164 -12 -61 25 c-72 30 -230 39 -305 17z m882 -66 c29 -29 30 -34 25 -93
-3 -34 -8 -72 -12 -85 -7 -21 -5 -22 18 -16 21 5 33 0 57 -24 l30 -30 -20 -44
c-21 -47 -25 -115 -11 -181 5 -23 14 -77 21 -119 10 -70 9 -80 -9 -115 -10
-21 -58 -73 -105 -116 -47 -43 -86 -85 -86 -93 0 -23 10 -17 52 31 22 25 44
43 48 40 5 -3 12 -30 15 -60 4 -30 11 -55 16 -55 12 0 11 57 -1 99 -9 32 -6
36 43 91 28 32 53 57 55 55 2 -2 8 -21 13 -43 12 -55 -3 -128 -47 -226 -20
-45 -51 -117 -69 -160 -19 -43 -39 -83 -47 -87 -7 -5 -30 -9 -50 -9 -21 0 -38
-4 -38 -10 0 -11 10 -13 58 -10 31 2 33 0 27 -20 -23 -73 -46 -224 -52 -342
-3 -76 -8 -138 -10 -138 -16 0 -88 47 -135 88 -67 59 -109 70 -181 48 l-48
-14 6 27 c6 29 -11 88 -22 77 -4 -4 -6 -24 -4 -45 1 -24 -5 -54 -18 -78 -21
-42 -120 -165 -203 -256 l-53 -57 -52 15 c-28 9 -85 22 -125 28 l-73 13 0 52
c0 43 -5 56 -27 79 -33 33 -51 23 -19 -11 13 -13 23 -37 23 -55 1 -27 -10 -42
-63 -94 -35 -34 -83 -83 -107 -110 -67 -75 -118 -107 -169 -107 -56 0 -114 30
-154 80 -17 22 -36 37 -40 34 -25 -15 67 -109 123 -126 21 -6 38 -15 38 -19 0
-4 -24 -13 -52 -19 -90 -21 -142 -41 -172 -67 -28 -24 -31 -24 -43 -7 -16 22
-17 68 -2 96 6 11 8 23 4 26 -11 11 -35 -30 -35 -60 0 -24 -4 -28 -29 -28 -31
0 -81 -33 -68 -46 4 -4 20 -1 35 8 20 12 33 13 49 5 23 -10 31 -41 13 -52 -5
-3 -17 -32 -26 -63 -9 -31 -27 -74 -40 -94 -13 -20 -26 -47 -29 -60 -5 -20
-11 -24 -34 -20 -16 2 -46 -5 -69 -17 -48 -25 -96 -27 -136 -6 -35 18 -36 18
-36 2 0 -19 43 -37 87 -37 39 0 38 2 9 -75 -8 -22 -15 -64 -16 -92 0 -52 -22
-93 -50 -93 -5 0 -10 -4 -10 -10 0 -13 37 -13 45 0 11 18 25 0 25 -31 0 -16 5
-29 11 -29 7 0 9 15 5 43 -16 117 5 224 55 281 35 41 61 51 88 37 16 -9 18
-16 11 -42 -12 -40 -28 -59 -51 -59 -11 0 -19 -4 -19 -10 0 -19 46 -10 67 12
24 27 33 54 37 107 2 22 15 60 30 86 15 25 34 69 43 98 19 67 38 87 80 87 29
0 33 3 29 18 -8 23 15 34 122 63 150 40 242 99 331 212 70 88 81 93 190 79
132 -18 233 -54 336 -122 115 -75 127 -79 259 -89 106 -8 110 -9 138 -40 34
-38 35 -57 6 -102 -17 -25 -49 -46 -117 -80 -103 -50 -173 -112 -151 -132 10
-9 14 -8 18 3 10 29 70 76 118 94 79 29 131 63 154 101 28 45 84 62 242 75 65
5 138 14 163 20 65 15 138 53 168 90 l26 31 49 -16 c40 -13 57 -14 90 -5 46
12 102 54 102 76 0 19 -19 18 -26 -1 -11 -27 -69 -55 -116 -55 -60 0 -83 18
-75 58 5 24 3 32 -8 32 -8 0 -15 -8 -15 -18 0 -28 -48 -95 -86 -121 -54 -37
-102 -49 -260 -65 -82 -9 -165 -20 -184 -26 -47 -14 -50 -13 -50 9 0 28 -37
69 -76 83 -27 10 -34 17 -30 32 9 33 -20 81 -77 131 -64 55 -80 85 -76 149 2
25 -1 46 -6 46 -11 1 -25 -56 -20 -74 2 -6 6 -24 10 -41 4 -19 32 -54 76 -96
49 -48 69 -74 69 -92 0 -31 -15 -37 -93 -37 -71 0 -108 15 -218 86 -42 27 -85
54 -95 61 -18 10 -16 14 27 60 66 68 151 172 177 214 26 42 81 69 143 69 50 0
71 -11 131 -67 72 -66 126 -87 228 -87 105 -1 150 17 241 99 78 71 128 94 196
95 63 0 99 -13 136 -48 64 -60 76 -138 31 -192 -27 -32 -27 -47 1 -37 14 6 35
44 49 90 6 18 7 18 37 0 74 -43 138 -148 146 -241 15 -167 -105 -306 -265
-306 -56 0 -66 3 -83 25 -10 13 -19 22 -20 19 0 -3 -3 -25 -5 -50 -8 -68 -47
-145 -103 -199 -92 -90 -204 -128 -399 -138 l-122 -6 -79 37 c-137 64 -244 67
-380 12 -117 -47 -146 -44 -263 31 l-48 30 21 19 c12 10 33 46 48 79 25 55 67
101 117 131 10 7 16 15 12 19 -11 11 -76 -25 -104 -57 -13 -17 -26 -29 -27
-27 -1 2 -7 13 -13 23 -14 27 -40 35 -29 10 5 -11 10 -38 13 -60 8 -78 -44
-134 -125 -134 -21 0 -62 -11 -91 -25 -30 -14 -56 -25 -59 -25 -3 0 12 23 32
50 47 64 36 80 -14 22 -37 -43 -37 -43 -56 -22 -23 26 -75 26 -106 1 -41 -33
-11 -41 33 -9 23 17 66 -4 74 -37 5 -20 -3 -39 -34 -86 -43 -63 -98 -186 -109
-241 -6 -29 -4 -31 9 -21 8 7 20 32 27 55 39 131 121 247 204 289 21 11 60 23
87 26 50 6 87 -8 200 -73 56 -32 113 -29 210 12 92 38 195 44 288 15 38 -11
80 -29 92 -39 l23 -19 -34 -25 c-44 -33 -83 -44 -199 -58 -70 -8 -116 -20
-175 -46 -140 -62 -184 -66 -238 -24 -34 27 -51 27 -37 0 9 -17 7 -22 -17 -31
-19 -7 -34 -7 -52 1 -30 14 -42 3 -17 -16 25 -18 63 -17 96 0 25 14 60 6 60
-14 0 -18 -73 -91 -109 -110 -20 -10 -94 -35 -164 -55 -100 -30 -150 -51 -225
-97 -147 -89 -230 -106 -299 -61 -28 18 -53 63 -53 93 0 33 -18 23 -22 -12 -3
-32 -5 -33 -46 -32 -29 0 -50 8 -66 23 l-24 23 20 34 c11 18 18 43 16 56 -4
21 -6 19 -20 -12 -8 -20 -29 -48 -46 -62 -64 -54 -135 -45 -199 25 -64 70
-163 279 -163 344 0 13 11 35 24 48 20 20 31 23 55 19 35 -7 44 11 11 21 -60
19 -76 102 -37 192 55 129 263 517 298 557 51 57 97 73 233 80 83 5 121 11
153 27 43 21 44 21 58 3 21 -27 18 -77 -5 -107 -11 -14 -16 -28 -11 -31 5 -4
19 6 30 20 26 32 28 100 5 132 -20 29 -21 27 131 165 172 155 248 201 334 200
61 -1 107 -25 133 -69 11 -19 24 -32 29 -29 9 6 2 32 -15 54 -23 29 144 136
260 166 32 8 90 15 129 15 87 0 131 -21 159 -76 19 -36 21 -37 24 -15 8 54
-84 121 -165 121 l-42 0 16 43 c10 26 18 95 22 187 8 173 19 201 88 232 28 12
42 23 36 29 -13 13 -60 -5 -92 -34 l-24 -22 6 52 c8 66 49 156 113 244 45 62
74 127 74 167 0 48 -14 39 -27 -19 -7 -29 -27 -74 -45 -102 -27 -42 -33 -47
-39 -31 -4 10 -14 39 -23 64 -20 56 -50 95 -65 86 -8 -5 -5 -15 10 -34 57 -73
63 -146 19 -236 -40 -82 -50 -143 -50 -311 0 -209 -27 -325 -76 -325 -33 0
-157 -44 -210 -75 -26 -15 -63 -43 -84 -61 l-38 -34 -43 20 c-24 11 -51 20
-60 20 -25 0 -29 21 -29 144 0 71 -6 131 -15 163 -16 54 -58 108 -76 97 -7 -4
-1 -16 15 -33 32 -34 44 -66 52 -146 5 -46 3 -69 -6 -80 -16 -20 -99 -20 -126
0 -20 13 -34 11 -34 -5 0 -18 81 -42 118 -36 38 6 40 5 46 -25 13 -69 10 -75
-52 -98 -33 -11 -89 -44 -125 -71 l-67 -50 -30 28 c-16 16 -42 55 -57 88 l-27
59 -2 259 c-1 150 2 270 8 285 22 60 86 102 153 103 37 1 47 -4 75 -35 17 -20
64 -60 103 -88 40 -29 94 -69 120 -88 26 -20 65 -60 85 -90 35 -50 37 -58 37
-127 -1 -71 6 -92 19 -58 3 9 6 40 6 70 l0 54 34 0 c40 0 94 39 82 59 -6 9
-12 7 -22 -7 -19 -28 -59 -35 -94 -17 -17 9 -30 20 -30 25 0 21 -79 95 -172
162 -112 80 -192 163 -201 208 -14 68 27 138 171 291 113 120 227 221 339 302
l80 57 91 6 c85 7 96 5 152 -20 69 -31 130 -44 130 -28 0 6 -14 14 -31 17 -18
4 -48 15 -68 23 l-36 17 60 6 c33 3 91 6 128 7 64 2 71 0 99 -28z m254 -89
c28 -12 68 -40 89 -61 37 -38 60 -45 48 -15 -14 38 52 -2 115 -70 45 -48 57
-56 78 -51 49 13 89 -20 235 -197 78 -95 149 -189 158 -209 9 -21 21 -38 28
-38 7 0 35 -27 63 -61 84 -101 135 -221 147 -341 7 -79 23 -91 23 -18 0 28 4
50 8 50 15 0 80 -75 103 -119 29 -57 38 -141 15 -141 -27 0 -18 -19 17 -33 45
-19 111 -97 126 -149 17 -57 25 -147 17 -192 l-7 -36 -64 43 c-59 39 -65 45
-65 78 0 40 -16 92 -38 126 -23 37 -33 15 -12 -27 32 -62 36 -113 12 -167 -11
-27 -23 -67 -27 -90 -4 -24 -9 -43 -11 -43 -36 0 -119 83 -194 193 -77 113
-122 149 -228 182 -48 15 -102 37 -120 48 l-33 20 35 28 c51 43 60 80 51 226
-5 86 -11 123 -19 120 -12 -4 -13 -25 -1 -149 7 -77 5 -91 -14 -131 -12 -24
-33 -49 -46 -55 -27 -13 -30 -10 -37 32 -2 11 -8 21 -14 23 -7 2 -10 -26 -10
-85 1 -77 -2 -93 -23 -123 -13 -19 -38 -45 -56 -56 -31 -20 -35 -21 -76 -6
-52 18 -111 12 -175 -17 -33 -14 -46 -16 -48 -7 -18 63 -42 109 -71 137 -48
46 -54 32 -11 -24 31 -41 56 -99 56 -132 0 -23 -84 -97 -138 -122 -53 -24
-161 -37 -177 -20 -14 14 -5 249 15 350 30 155 117 398 143 398 5 0 56 -47
113 -105 84 -85 104 -111 104 -135 0 -16 -4 -32 -10 -35 -13 -8 -13 -35 1 -35
6 0 16 14 22 30 14 36 18 37 43 9 28 -31 94 -63 106 -51 6 6 -7 18 -37 32 -29
14 -70 50 -113 98 -86 98 -138 150 -185 188 l-38 31 22 54 c30 74 31 181 1
273 -37 115 -24 198 35 225 13 6 22 15 19 20 -10 15 -45 0 -66 -27 -11 -14
-23 -22 -27 -18 -4 4 -7 37 -7 74 0 77 18 118 66 156 37 29 31 47 -7 22 -26
-17 -27 -17 -50 8 -13 14 -35 28 -50 32 -18 4 -24 11 -21 21 4 8 9 32 12 52
l6 38 72 -2 c48 -1 88 -9 122 -24z m490 -1350 c14 -11 62 -32 107 -46 136 -45
173 -74 260 -205 22 -32 22 -113 0 -151 -9 -15 -13 -32 -9 -36 11 -12 35 26
47 74 l11 41 29 -33 c29 -32 119 -85 146 -85 9 0 13 16 14 48 1 54 22 118 37
115 23 -5 166 -105 181 -126 10 -14 17 -53 19 -117 l4 -95 -37 35 c-20 19 -46
51 -57 70 -30 49 -49 70 -59 64 -5 -3 2 -22 15 -42 48 -75 53 -116 30 -289 -4
-30 -3 -53 3 -53 13 0 45 184 37 215 -8 34 5 31 39 -10 23 -28 30 -50 42 -141
12 -83 13 -120 5 -158 -20 -92 -83 -145 -155 -132 -35 7 -35 7 -35 59 -1 50
-2 53 -41 77 -93 57 -160 178 -167 302 -3 48 -8 75 -14 71 -6 -3 -9 -39 -6
-87 3 -61 11 -95 32 -138 30 -63 28 -87 -7 -125 -11 -13 -17 -26 -13 -30 5 -5
22 8 40 29 l32 36 57 -53 c46 -43 57 -59 57 -85 0 -46 -17 -70 -65 -91 -128
-57 -313 -24 -441 79 -59 47 -80 44 -33 -4 l31 -32 -56 -21 c-73 -27 -178 -43
-235 -36 -75 10 -141 26 -141 35 0 5 9 24 19 42 11 18 24 51 30 73 l10 40 79
0 c67 0 87 4 137 30 53 27 110 84 128 127 8 19 94 -78 108 -122 16 -48 20 -53
31 -42 15 15 -24 94 -73 147 l-43 46 -3 112 c-8 262 -9 255 47 344 17 27 4 45
-14 20 -17 -23 -19 -22 -40 18 -11 19 -25 35 -33 35 -17 0 -17 -4 7 -42 11
-18 20 -45 20 -60 0 -23 -19 -114 -26 -126 -1 -2 -23 19 -48 46 -25 27 -61 57
-80 67 -21 11 -37 29 -41 44 -3 15 -19 42 -35 62 l-28 35 34 28 c41 32 74 93
74 136 0 35 4 36 36 11z m214 -1090 c68 -32 68 -32 -45 -52 -206 -36 -481
-168 -677 -326 -56 -45 -79 -57 -100 -55 -16 2 -28 7 -28 12 0 37 202 233 301
291 80 48 190 88 239 89 70 1 199 37 247 69 0 1 29 -12 63 -28z m-435 -33 c14
-2 1 -12 -47 -35 -37 -17 -95 -51 -130 -74 -73 -50 -202 -176 -243 -237 -25
-37 -32 -42 -66 -42 -22 0 -39 3 -39 8 0 15 99 159 142 207 31 35 71 63 129
92 46 23 99 57 117 76 33 34 34 34 75 22 23 -7 51 -14 62 -17z m689 -51 c33
-43 33 -47 -5 -47 -58 0 -280 -50 -402 -91 -141 -47 -335 -137 -427 -198 -60
-40 -65 -42 -117 -35 -29 3 -53 10 -53 14 0 11 87 81 170 137 226 152 509 249
732 252 76 1 77 1 102 -32z m71 -98 c9 -17 14 -33 12 -35 -3 -3 -69 -12 -148
-20 -243 -25 -398 -72 -543 -163 -82 -52 -155 -75 -216 -69 l-35 3 75 47 c206
129 603 262 797 267 38 1 44 -2 58 -30z m-1179 -30 c-25 -28 -68 -88 -96 -133
-42 -71 -56 -85 -91 -99 -24 -9 -44 -15 -46 -13 -8 8 76 162 120 223 46 62 56
68 130 72 l29 1 -46 -51z m-226 36 c0 -3 -16 -26 -36 -52 -42 -56 -76 -120
-99 -191 -10 -29 -21 -52 -26 -52 -36 0 -2 116 67 226 36 59 50 74 70 74 13 0
24 -2 24 -5z m120 0 c0 -3 -21 -35 -47 -72 -43 -63 -123 -219 -123 -240 0 -6
-8 -17 -18 -26 -16 -14 -19 -14 -41 2 l-24 19 26 74 c32 90 64 150 112 206 31
36 42 42 76 42 21 0 39 -2 39 -5z m-273 -122 c-13 -26 -30 -65 -37 -87 l-12
-38 -19 28 c-10 16 -22 44 -25 62 -4 18 -12 32 -20 32 -34 0 24 -126 85 -184
l40 -39 -57 -34 c-31 -19 -85 -62 -119 -95 l-62 -62 -87 43 c-67 34 -106 62
-167 122 -74 73 -79 80 -65 97 9 9 23 31 31 48 14 26 23 32 60 36 23 3 81 22
127 43 56 25 109 41 160 47 41 6 100 15 130 22 30 6 56 11 58 10 2 -1 -8 -24
-21 -51z m1603 22 c6 -19 9 -39 5 -44 -16 -28 -282 -90 -470 -111 -113 -12
-268 -13 -261 -1 19 31 203 111 312 137 53 12 270 42 391 53 6 1 17 -15 23
-34z m16 -126 c-4 -28 -16 -75 -27 -104 -23 -62 -21 -61 -195 -71 -189 -11
-391 22 -522 84 l-57 27 185 7 c102 3 226 13 275 22 114 21 248 54 288 71 55
24 60 21 53 -36z m-1241 -99 c78 -107 251 -238 432 -329 95 -47 258 -116 328
-138 l29 -9 -38 -26 -39 -27 -81 30 c-195 70 -427 204 -577 332 -66 57 -179
188 -179 210 0 4 20 7 44 7 42 0 47 -3 81 -50z m120 -10 c220 -173 429 -270
714 -334 l104 -23 -55 -41 c-30 -23 -63 -42 -72 -42 -76 0 -431 162 -567 259
-86 62 -193 161 -231 213 l-21 30 34 -7 c19 -4 61 -29 94 -55z m-235 -7 c48
-75 186 -205 301 -281 102 -69 328 -186 427 -222 67 -24 69 -36 13 -60 -26
-10 -40 -7 -123 25 -320 128 -520 275 -665 492 -47 71 -52 89 -25 96 33 9 37
6 72 -50z m440 -18 c78 -53 151 -88 270 -130 111 -38 322 -85 386 -85 64 0 69
-11 24 -55 l-40 -39 -118 23 c-228 46 -410 120 -582 236 -93 63 -140 99 -140
107 0 3 33 -1 73 -7 55 -9 85 -21 127 -50z m154 26 c139 -67 309 -95 536 -89
107 2 157 0 153 -7 -4 -5 -24 -36 -46 -67 -39 -56 -41 -58 -86 -58 -119 0
-331 47 -486 106 -89 35 -235 113 -235 126 0 6 29 12 84 16 10 1 46 -11 80
-27z m-665 -62 c127 -199 360 -377 640 -490 61 -24 111 -47 111 -51 0 -4 -17
-12 -38 -19 -34 -10 -45 -8 -102 16 -292 123 -561 316 -703 506 -31 41 -34 54
-11 45 23 -9 37 3 23 20 -9 11 -9 17 1 29 21 25 33 17 79 -56z m-194 -6 c-32
-74 -7 -138 74 -187 31 -19 108 -83 171 -141 63 -59 145 -129 181 -156 l67
-50 6 -87 c11 -135 44 -307 80 -415 l32 -98 -30 -16 c-17 -9 -62 -18 -101 -21
l-70 -4 -52 143 c-29 79 -83 228 -121 331 l-69 188 -82 71 c-75 65 -271 281
-271 299 0 17 48 66 109 111 71 52 88 59 76 32z m90 -51 c89 -122 242 -255
417 -364 81 -50 225 -124 290 -148 l33 -12 -40 -10 c-50 -12 -140 4 -214 38
-74 34 -166 101 -269 197 -107 102 -177 159 -219 180 -35 19 -71 60 -79 92 -5
21 21 103 30 94 2 -2 25 -33 51 -67z"/>
<path d="M3602 5084 c-152 -45 -248 -109 -294 -198 -11 -22 -26 -45 -32 -51
-38 -39 -89 -40 -122 -4 -20 22 -38 15 -24 -10 19 -37 79 -49 134 -26 17 8 18
3 14 -65 -4 -68 -6 -75 -37 -100 -19 -17 -28 -30 -22 -34 13 -8 47 9 58 29 8
13 16 12 60 -6 49 -21 83 -21 83 1 0 5 -15 10 -34 10 -19 0 -45 9 -60 21 -24
19 -26 27 -26 93 0 57 5 83 26 123 46 94 123 147 279 194 49 14 91 31 93 38 5
15 1 14 -96 -15z"/>
<path d="M3262 4442 c42 -95 58 -115 58 -72 0 11 9 29 20 40 21 21 26 40 12
40 -5 0 -17 -9 -27 -20 l-18 -20 -14 20 c-13 19 -39 29 -31 12z"/>
<path d="M4371 3459 c-24 -51 -29 -169 -8 -169 8 0 12 19 12 63 0 40 6 74 18
96 11 23 14 38 7 45 -6 6 -16 -6 -29 -35z"/>
<path d="M4145 3257 c-54 -29 -159 -35 -224 -13 -57 18 -61 19 -61 8 0 -13 46
-32 101 -42 81 -16 239 22 239 57 0 16 -5 15 -55 -10z"/>
<path d="M4135 2900 c-27 -30 -118 -70 -186 -82 -76 -13 -80 -33 -5 -24 30 3
61 9 70 12 11 4 19 -3 27 -22 5 -16 20 -39 32 -52 25 -27 95 -48 110 -33 11
11 5 14 -46 26 -36 7 -77 51 -77 80 0 14 9 26 26 34 35 15 94 61 94 72 0 16
-27 9 -45 -11z"/>
<path d="M2396 2741 c-4 -5 15 -28 41 -51 68 -60 101 -82 107 -71 3 5 -28 36
-68 70 -41 34 -77 57 -80 52z"/>
<path d="M2400 2315 c-15 -30 -35 -53 -61 -68 -21 -12 -39 -25 -39 -29 0 -15
28 -8 64 17 43 29 46 30 46 10 0 -25 23 -65 37 -65 16 0 16 0 -3 39 -11 22
-15 49 -12 82 3 27 2 52 -3 54 -4 3 -17 -15 -29 -40z"/>
<path d="M4417 4894 c-3 -6 1 -30 10 -55 9 -28 13 -61 9 -92 -4 -35 -2 -47 7
-44 20 6 20 116 -1 162 -10 21 -21 35 -25 29z"/>
<path d="M4646 4630 c24 -128 -22 -227 -160 -338 -64 -53 -71 -54 -142 -31 -7
2 -14 0 -15 -6 -5 -12 54 -34 92 -34 24 -1 27 -5 33 -53 14 -107 37 -188 53
-188 9 0 13 6 10 14 -15 39 -29 104 -37 173 l-8 76 76 73 c61 58 87 75 125 84
58 15 141 6 191 -20 23 -11 38 -14 42 -8 8 13 -10 25 -58 40 -33 9 -37 14 -32
35 7 28 -8 30 -27 4 -19 -26 -154 -38 -143 -12 22 51 33 89 34 110 0 15 13 35
33 52 35 30 32 51 -5 25 -29 -21 -38 -20 -38 3 0 10 -7 25 -16 32 -15 12 -16
9 -8 -31z"/>
<path d="M4641 4265 c-33 -30 -40 -33 -51 -20 -7 8 -16 15 -21 15 -16 0 -9
-22 17 -52 14 -17 28 -44 31 -59 9 -48 26 -34 19 16 -4 26 -3 53 4 65 14 25
61 50 97 50 28 0 41 -7 124 -66 24 -16 74 -43 112 -58 76 -32 117 -73 117
-117 0 -16 5 -29 10 -29 16 0 11 64 -7 90 -27 39 -53 57 -127 86 -37 15 -82
39 -100 54 -60 51 -79 60 -133 60 -46 0 -58 -4 -92 -35z"/>
<path d="M4917 4024 c-4 -4 -7 -20 -7 -35 0 -15 -11 -41 -25 -57 -27 -32 -24
-47 6 -31 15 8 27 4 57 -19 55 -43 117 -64 194 -64 65 0 88 5 88 20 0 4 -39 7
-88 7 -91 0 -120 10 -189 61 -29 22 -31 26 -21 57 10 34 0 76 -15 61z"/>
<path d="M5126 3722 c-5 -9 35 -111 58 -147 9 -14 21 -25 26 -25 14 0 14 -2
-25 76 -19 38 -35 77 -35 87 0 17 -15 23 -24 9z"/>
<path d="M5257 3253 c-3 -38 -9 -78 -13 -90 -11 -37 14 -27 30 12 8 19 26 40
40 47 36 16 33 32 -4 25 -29 -6 -30 -6 -30 33 0 66 -17 45 -23 -27z"/>
<path d="M1175 4250 c-4 -6 2 -21 13 -33 21 -24 52 -80 52 -96 0 -5 -13 -12
-29 -16 -41 -9 -106 -68 -131 -120 -12 -25 -26 -45 -31 -45 -15 0 -49 78 -49
115 0 33 -12 46 -24 26 -13 -20 17 -113 45 -146 22 -25 28 -40 24 -58 -6 -20
-14 -25 -51 -30 -74 -8 -141 -69 -164 -148 -11 -39 -12 -122 -1 -159 6 -19 2
-31 -16 -51 -52 -56 -50 -149 5 -231 44 -67 262 -208 262 -170 0 4 -37 29 -82
56 -45 27 -98 64 -119 83 -75 68 -99 165 -58 232 l20 34 46 -52 c56 -65 107
-94 208 -121 86 -24 127 -52 123 -85 -1 -11 2 -22 7 -25 6 -3 11 9 13 26 4 41
-34 78 -96 94 -137 35 -211 81 -259 160 -77 126 -40 274 80 324 65 27 77 19
77 -54 0 -33 4 -60 10 -60 6 0 10 21 10 48 1 77 19 180 39 220 26 50 68 91
115 111 l38 17 38 -38 c25 -26 47 -38 65 -38 15 0 34 -8 41 -17 12 -16 13 -14
14 19 0 42 -14 57 -29 31 -9 -17 -12 -17 -48 2 -30 16 -45 35 -73 92 -39 81
-73 122 -85 103z"/>
<path d="M1644 3161 c-40 -18 -61 -37 -51 -47 2 -3 20 4 39 16 38 22 95 29
146 16 42 -10 43 8 1 23 -46 16 -88 13 -135 -8z"/>
<path d="M1045 3001 c-3 -6 3 -15 14 -21 11 -5 25 -26 32 -45 7 -19 17 -35 22
-35 16 0 -2 63 -25 87 -23 25 -34 28 -43 14z"/>
</g>
</svg>
